<svg width="22" height="28" viewBox="0 0 22 28" fill="none" xmlns="http://www.w3.org/2000/svg">
<path d="M19.3629 10.5963C19.3629 14.8331 16.1392 18.2478 11.8859 18.6921V13.6425L15.4579 11.5954C15.7145 11.4533 15.8726 11.2444 15.926 11.0071C15.9784 10.7745 15.9244 10.5406 15.8077 10.3529C15.5716 9.97302 15.054 9.74869 14.5209 10.0427L14.52 10.0432L11.8859 11.51V7.472C11.8859 7.18537 11.7818 6.94997 11.6081 6.78735C11.4379 6.62813 11.2159 6.55251 11.0001 6.55251C10.7843 6.55251 10.5622 6.62813 10.3921 6.78735C10.2184 6.94997 10.1143 7.18535 10.1143 7.47197C10.1143 7.47198 10.1143 7.47199 10.1143 7.472L10.1142 8.09815L8.20333 6.71491C7.97594 6.53433 7.72228 6.47952 7.48535 6.52782C7.25435 6.57491 7.06005 6.71532 6.92832 6.88788C6.79692 7.06001 6.71385 7.2825 6.72951 7.51169C6.74563 7.74753 6.8657 7.9697 7.0993 8.12327L10.1142 10.3866V13.8974L7.15932 11.7337L7.15323 11.7292L7.14689 11.7252C6.66539 11.4154 6.1499 11.622 5.88801 11.9651C5.75565 12.1385 5.67381 12.3608 5.68915 12.5952C5.70488 12.8353 5.82145 13.0658 6.04571 13.2461L6.04551 13.2464L6.05578 13.2538L10.1142 16.1919V18.6921C5.85206 18.2475 2.52177 14.8288 2.52177 10.5963C2.52177 6.16749 6.33223 2.47731 10.9423 2.47731C15.6661 2.47731 19.3629 6.16562 19.3629 10.5963ZM21.25 10.5966C21.25 5.20366 16.6188 0.75 10.9422 0.75C5.37887 0.75 0.75 5.20579 0.75 10.5966C0.75 15.7911 4.78545 20.0861 10.1142 20.5368V26.3304C10.1142 26.7501 10.4095 27.25 10.9421 27.25C11.2382 27.25 11.48 27.1407 11.6463 26.9601C11.8089 26.7835 11.8858 26.5535 11.8858 26.3304V20.5368C17.2145 20.0861 21.25 15.7911 21.25 10.5966Z" fill="#7000FF" stroke="#7000FF" stroke-width="0.5"/>
</svg>
