<svg width="25" height="24" viewBox="0 0 25 24" fill="none" xmlns="http://www.w3.org/2000/svg">
<path d="M14.75 7.5C14.75 7.79547 14.6918 8.08806 14.5787 8.36104C14.4657 8.63402 14.2999 8.88206 14.091 9.09099C13.8821 9.29992 13.634 9.46566 13.361 9.57873C13.0881 9.6918 12.7955 9.75 12.5 9.75C12.2045 9.75 11.9119 9.6918 11.639 9.57873C11.366 9.46566 11.1179 9.29992 10.909 9.09099C10.7001 8.88206 10.5343 8.63402 10.4213 8.36104C10.3082 8.08805 10.25 7.79547 10.25 7.5C10.25 7.20453 10.3082 6.91194 10.4213 6.63896C10.5343 6.36598 10.7001 6.11794 10.909 5.90901C11.1179 5.70008 11.366 5.53434 11.639 5.42127C11.9119 5.3082 12.2045 5.25 12.5 5.25C12.7955 5.25 13.0881 5.3082 13.361 5.42127C13.634 5.53434 13.8821 5.70008 14.091 5.90901C14.2999 6.11794 14.4657 6.36598 14.5787 6.63896C14.6918 6.91195 14.75 7.20453 14.75 7.5L14.75 7.5Z" stroke="#544D5E" stroke-width="1.5" stroke-linecap="round" stroke-linejoin="round"/>
<path d="M12.5 9.75V15.25" stroke="#544D5E" stroke-width="1.5" stroke-linecap="round"/>
<path d="M9.5 13C7.27742 13.4909 5.75 14.5721 5.75 15.75C5.75 17.4068 8.77208 18.75 12.5 18.75C16.2279 18.75 19.25 17.4068 19.25 15.75C19.25 14.5721 17.7226 13.4909 15.5 13" stroke="#544D5E" stroke-width="1.5" stroke-linecap="round" stroke-linejoin="round"/>
</svg>
