<svg width="24" height="24" viewBox="0 0 24 24" fill="none" xmlns="http://www.w3.org/2000/svg">
<path d="M3 13C3 11.3431 4.34315 10 6 10H18C19.6569 10 21 11.3431 21 13V18C21 19.6569 19.6569 21 18 21H6C4.34315 21 3 19.6569 3 18V13Z" stroke="#160042" stroke-width="1.5"/>
<path d="M8 9.7558L8 5.99997C8 4.34311 9.34316 2.99996 11 2.99997L13 2.99998C14.6569 2.99999 16 4.34313 16 5.99998L16 10" stroke="#160042" stroke-width="1.5"/>
<path d="M10.4429 15.6446C10.4363 15.8436 10.469 16.0419 10.5391 16.2282C10.6091 16.4145 10.7152 16.5852 10.8512 16.7305C10.9872 16.8759 11.1505 16.993 11.3318 17.0752C11.5131 17.1574 11.7088 17.2031 11.9078 17.2097C12.1067 17.2163 12.305 17.1836 12.4913 17.1136C12.6776 17.0435 12.8483 16.9374 12.9937 16.8014C13.139 16.6654 13.2561 16.5021 13.3383 16.3208C13.4206 16.1395 13.4663 15.9438 13.4728 15.7449C13.4794 15.5459 13.4468 15.3476 13.3767 15.1613C13.3066 14.975 13.2006 14.8043 13.0646 14.6589C12.9285 14.5136 12.7652 14.3965 12.5839 14.3143C12.4027 14.2321 12.2069 14.1864 12.008 14.1798C11.8091 14.1732 11.6108 14.2059 11.4244 14.2759C11.2381 14.346 11.0674 14.452 10.9221 14.5881C10.7768 14.7241 10.6596 14.8874 10.5774 15.0687C10.4952 15.25 10.4495 15.4457 10.4429 15.6446Z" fill="#160042"/>
</svg>
